<?xml version="1.0" encoding="UTF-8"?>
<svg width="497px" height="168px" viewBox="0 0 497 168" version="1.1" xmlns="http://www.w3.org/2000/svg" xmlns:xlink="http://www.w3.org/1999/xlink">
    <!-- Generator: Sketch 53.2 (72643) - https://sketchapp.com -->
    <title>PARK INN APR 2018 RGB</title>
    <desc>Created with Sketch.</desc>
    <g id="Page-1" stroke="none" stroke-width="1" fill="none" fill-rule="evenodd">
        <g id="PARK-INN-APR-2018-RGB">
            <path d="M363.301,159.818 C363.558,159.505 363.798,159.023 365.104,158.706 C365.104,158.706 409.474,143.638 468.491,146.652 C468.491,146.652 471.842,146.528 470.934,147.993 C470.4,148.853 469.405,148.907 467.513,149.009 C467.513,149.009 466.87,149.105 464.359,149.079 C464.359,149.079 470.394,151.423 446.568,150.933 C446.568,150.933 448.673,153.081 439.911,152.462 C439.911,152.462 415.478,151.347 366.093,160.301 C366.093,160.301 362.21,161.138 363.301,159.818" id="Fill-1" fill="#000105"></path>
            <path d="M493.956,139.639 C493.956,139.639 500.864,145.339 492.293,145.045 C492.293,145.045 490.628,145.172 489.607,141.741 C489.607,141.741 486.662,135.012 486.876,132.466 C486.584,132.792 484.951,134.758 484.021,136.928 C483.481,138.189 483.261,138.625 482.488,139.829 C482.064,140.428 481.66,140.973 481.278,141.319 C477.498,144.83 477.126,140.347 477.126,140.347 C476.349,136.528 478.309,130.398 478.309,130.398 C479.731,126.165 481.82,127.907 481.82,127.907 C484.726,128.667 483.553,131.463 483.553,131.463 C482.932,133.595 482.378,133.131 482.378,133.131 C481.66,133.606 481.462,134.625 481.413,135.273 C481.413,135.273 481.145,137.64 482.202,135.823 C483.002,134.208 484.54,131.51 485.662,130.647 C485.662,130.647 487.317,128.889 488.284,130.336 C488.284,130.336 492.451,138.713 493.956,139.639 Z M375.819,157.691 C377.586,160.156 378.943,161.898 378.574,162.224 C377.37,163.267 371.953,159.039 371.953,159.039 C362.534,151.226 358.367,141.267 357.457,138.848 C357.321,138.496 357.589,138.182 357.589,138.182 C357.91,137.824 358.426,137.622 359.79,137.473 C359.784,137.473 359.793,137.475 359.793,137.475 C359.07,137.127 358.848,137.035 358.911,136.798 C359.046,136.407 360.368,136.418 360.368,136.418 C361.41,136.371 362.167,136.308 362.167,136.308 C363.694,136.143 364.466,136.002 364.466,136.002 C367.721,135.482 368.993,134.069 368.993,134.069 C372.21,130.812 367.043,127.546 367.043,127.546 C353.955,120.025 343.41,123.59 343.41,123.59 C342.835,123.754 342.399,123.757 341.771,123.553 C340.396,123.094 342.835,121.151 342.835,121.151 C349.333,115.772 352.74,117.384 352.74,117.384 C365.355,118.22 370.907,124.816 370.907,124.816 C375.301,129.467 374.161,133.174 373.568,134.253 C371.419,138.189 366.322,138.285 366.322,138.285 C365.529,138.333 364.835,138.352 364.219,138.356 C364.806,139.021 365.233,140.188 365.233,140.188 C366.212,143.257 375.819,157.691 375.819,157.691 Z M358.87,126.093 C359.579,127.385 358.633,129.438 358.633,129.438 C354.546,137.799 349.436,157.541 348.414,161.569 L348.436,161.562 C348.436,161.562 348.41,161.625 348.375,161.736 C348.28,162.099 348.232,162.293 348.232,162.293 C348.166,162.591 348.092,162.86 348.019,163.109 C347.909,163.727 347.823,164.507 347.843,165.392 L347.83,165.388 C347.865,166.465 347.819,167.554 347.494,167.702 C346.577,168.122 346.103,166.894 345.846,165.554 C344.946,165.342 344.205,164.177 344.205,164.177 C340.894,161.957 343.37,155.784 343.37,155.784 C345.62,146.851 356.774,128.005 356.774,128.005 C358.084,125.897 358.626,125.643 358.87,126.093 Z M384.578,143.591 C384.3,144.037 384.034,144.542 383.314,144.997 C383.314,144.997 379.629,147.255 379.758,144.07 C379.758,144.07 379.881,142.302 380.486,140.658 C380.486,140.658 382.189,136.344 384.818,133.829 C385.06,133.588 385.271,133.562 385.404,133.746 C385.772,134.245 385.835,134.817 386.112,135.288 C386.188,135.413 386.266,135.541 386.356,135.666 C386.041,137.281 385.231,140.349 385.093,142.67 C384.998,142.993 384.765,143.288 384.578,143.591 Z M394.294,141.597 C394.294,141.597 394.28,141.491 394.183,141.407 C393.94,141.238 392.745,141.781 391.562,142.494 C391.372,142.605 391.204,142.703 391.038,142.791 C390.609,143.06 390.187,143.332 390.018,143.477 C390.018,143.477 389.252,144.085 389.337,142.717 C389.337,142.699 389.339,142.684 389.341,142.664 L389.339,142.664 C389.352,142.361 389.414,141.976 389.432,141.561 C389.432,141.561 390.477,137.383 390.928,136.213 C390.928,136.213 391.178,135.111 391.569,133.858 C391.569,133.858 393.347,132.004 390.079,131.404 C390.079,131.404 388.511,127.556 386.828,133.617 C386.828,133.614 386.828,133.614 386.828,133.614 C386.71,132.99 386.138,132.03 385.26,131.65 C385.083,131.55 384.829,131.477 384.486,131.444 C384.355,131.429 384.269,131.469 383.983,131.429 C383.983,131.429 382.41,130.887 380.732,132.99 C378.946,134.957 373.732,141.209 374.925,146.443 C374.925,146.443 375.567,149.149 377.97,149.139 C377.97,149.139 381.158,149.173 383.566,146.891 C383.566,146.891 384.286,146.255 385.06,145.309 C385.09,145.631 385.141,145.984 385.231,146.335 C385.25,146.403 385.264,146.469 385.28,146.535 C385.28,146.535 385.371,147.14 385.868,147.603 C386.235,147.937 386.824,148.194 387.758,148.068 C387.854,148.048 387.953,148.025 388.054,147.993 C388.054,147.993 391.422,147.177 391.343,145.746 C391.301,145.038 391.558,144.9 391.558,144.9 C391.558,144.9 391.769,144.779 391.695,144.531 C391.695,144.531 394.384,142.732 394.294,141.597 Z M452.556,130.688 C454.059,131.74 456.577,134.061 456.16,136.486 C456.16,136.486 455.433,141.952 446.396,141.763 C446.396,141.763 445.412,141.712 445.392,141.1 C445.394,140.651 445.583,140.295 446.357,139.997 C446.357,139.997 452.236,138.099 448.382,131.029 C448.382,131.029 446.93,132.156 444.892,133.742 C444.892,133.742 443.468,135.311 443.571,133.08 C443.571,133.08 443.694,131.847 444.224,131.371 C444.224,131.371 447.5,129.436 448.593,126.414 C449.134,124.418 452.056,122.731 452.339,124.411 C452.467,125.171 451.599,125.639 451.168,126.178 C450.191,127.404 451.447,129.987 452.556,130.688 Z M465.664,126.598 C467.241,124.515 468.344,125.455 468.344,125.455 C468.493,125.54 468.808,125.439 468.942,125.428 C471.031,125.271 469.313,127.329 469.313,127.329 C467.549,129.722 465.952,134.207 465.952,134.207 C465.547,135.217 465.16,136.853 465.16,136.853 C464.521,139.571 467.386,137.648 467.386,137.648 C467.795,137.361 468.169,136.947 468.366,136.765 C468.692,136.455 468.977,136.418 468.977,136.418 C469.576,136.334 468.559,133.22 468.559,133.22 C468.122,131.987 468.201,131.932 468.201,131.932 C467.922,130.42 468.764,130.034 468.764,130.034 C469.658,129.487 470.379,130.918 470.379,130.918 C471.18,132.137 471.89,135.348 471.89,135.348 C472.573,138.193 470.442,137.967 470.442,137.967 C469.557,138.143 468.047,139.646 468.047,139.646 C465.69,141.596 462.412,141.785 462.412,141.785 C459.152,141.901 459.413,139.03 459.413,139.03 C459.391,135.926 465.664,126.598 465.664,126.598 Z M428.131,119.268 C428.039,120.119 427.586,120.831 426.965,121.204 C426.083,121.872 424.256,123.011 423.666,122.857 C423.069,122.7 423.741,120.816 423.774,120.285 C423.812,119.688 423.81,119.252 423.93,118.701 C424.121,117.415 425.15,116.484 426.283,116.602 C427.448,116.726 428.278,117.92 428.131,119.268 Z M436.016,127.656 C436.016,127.656 441.339,133.32 441.119,137.244 C441.119,137.244 440.396,142.708 431.352,142.523 C431.352,142.523 429.119,142.189 431.315,140.757 C431.315,140.757 437.193,138.852 433.344,131.789 C433.344,131.789 429.706,136.06 427.298,138.426 L427.314,138.444 C420.426,145.166 419.073,142.699 419.073,142.699 C416.448,138.946 418.372,130.732 418.372,130.732 C419.387,126.388 421.633,127.926 421.633,127.926 C424.922,128.46 423.691,131.3 423.691,131.3 C423.271,133.481 422.74,133.243 422.74,133.243 C421.727,134.057 421.514,137.655 421.514,137.655 C421.922,139.637 420.158,142.394 425.257,137.967 C426.464,136.754 432.573,129.881 433.547,127.173 C433.547,127.173 434.566,124.537 436.016,127.656 Z M402.003,141.286 C402.003,141.286 401.324,140.838 401.368,138.811 C401.368,138.811 401.561,135.284 403.953,132.463 C403.953,132.463 404.623,131.615 405.164,131.517 C405.346,131.481 405.643,131.743 405.775,132.821 C405.81,133.087 405.048,133.141 405.328,133.984 C405.328,133.984 406.599,137.208 409.281,135.754 C409.171,136.415 409.05,137.079 408.923,137.751 C407.522,139.687 404.586,143.044 402.003,141.286 Z M413.415,111.074 C413.415,111.074 410.476,107.37 410.973,111.639 C410.973,111.639 411.372,120.552 409.903,131.638 C409.736,131.209 409.507,130.768 409.2,130.336 C409.2,130.336 406.636,126.92 403.766,127.864 C403.766,127.864 400.102,129.017 397.978,134.551 C397.978,134.551 396.479,138.375 396.902,141.253 C396.902,141.253 396.763,148.815 405.968,143.47 C405.968,143.47 406.942,142.879 408.084,141.718 C407.862,142.663 407.5,143.281 407.466,144.252 C407.466,144.252 407.139,146.249 408.053,146.752 C408.4,146.944 408.776,146.68 409.586,144.738 C409.586,144.738 416.129,127.948 416.479,121.017 C416.479,121.017 418.781,117.576 413.415,111.074 L413.415,111.074 Z" id="Fill-2" fill="#000105"></path>
            <path d="M474.944,147.002 C476.749,147.111 478.777,147.137 481.59,147.409 C483.048,147.551 485.302,147.551 485.623,148.497 C485.917,149.369 484.815,150.261 482.851,150.643 C481.854,150.838 481.229,150.996 480.332,150.965 C479.269,150.929 476.995,151.01 476.932,149.788 C476.882,149.024 475.396,149.031 474.405,148.991 C472.418,148.91 472.621,148.352 473.058,147.672 C473.313,147.255 473.856,146.99 474.944,147.002" id="Fill-3" fill="#000105"></path>
            <path d="M114.785,56.724 C102.62,59.198 85.54,58.919 77.019,67.689 C77.021,67.55 77.026,67.41 77.026,67.269 C77.026,61.823 76.345,56.44 74.933,51.453 L97.4,51.453 C98.542,45.181 102.816,42.19 109.512,42.19 C114.499,42.19 121.194,44.33 121.194,49.887 C121.194,54.445 118.915,55.869 114.785,56.724 Z M106.093,89.783 C100.678,89.783 95.976,87.36 95.976,81.379 C95.976,75.532 100.535,73.253 105.949,71.973 C111.223,70.544 117.491,70.12 120.912,67.981 C121.483,83.226 117.634,89.783 106.093,89.783 Z M38.267,86.218 C27.294,86.218 23.591,77.812 23.591,64.85 C23.591,49.599 31.854,45.04 38.408,45.04 C49.096,45.04 52.802,55.445 52.802,64.85 C52.802,74.962 49.096,86.218 38.267,86.218 Z M144.283,51.311 C144.283,30.366 127.325,26.515 109.8,26.515 C101.392,26.515 92.84,27.939 86.288,31.645 C79.847,35.423 75.356,41.561 74.792,50.964 C70.722,37.14 60.913,26.515 43.966,26.515 C35.417,26.515 28.291,30.218 23.591,37.203 L23.304,37.203 L23.304,28.653 L0.22,28.653 L0.22,143.936 L24.444,143.936 L24.444,94.629 L24.731,94.629 C29.715,101.324 36.7,104.746 45.82,104.746 C58.65,104.746 67.463,97.897 72.373,88.174 C74.871,99.425 84.8,104.746 96.974,104.746 C105.808,104.746 115.07,102.181 121.339,95.624 C121.624,98.049 121.909,100.328 122.766,102.607 L147.129,102.607 C144.283,96.765 144.283,89.927 144.283,83.656 L144.283,51.311 L144.283,51.311 Z" id="Fill-4" fill="#1A2B45"></path>
            <path d="M251.15,56.583 L278.221,28.653 L250.152,28.653 L228.066,53.303 L228.066,0.866 L203.841,0.866 L203.841,27.717 C202.11,27.36 200.28,27.229 198.568,27.229 C188.166,27.229 179.903,32.216 176.341,41.621 L176.056,41.621 L176.056,28.653 L152.544,28.653 L152.544,102.607 L176.767,102.607 L176.767,65.986 C176.767,56.724 183.038,48.462 195.007,48.462 C198.131,48.462 200.873,48.986 203.841,49.779 L203.841,102.607 L228.066,102.607 L228.066,78.954 L234.333,72.827 L252.433,102.607 L281.643,102.607 L251.15,56.583" id="Fill-5" fill="#1A2B45"></path>
            <path d="M308.887,19.391 L333.113,19.391 L333.113,0.866 L308.887,0.866 L308.887,19.391 Z M308.887,102.607 L333.113,102.607 L333.113,28.653 L308.887,28.653 L308.887,102.607 Z" id="Fill-6" fill="#1A2B45"></path>
            <path d="M341.134,28.653 L364.645,28.653 L364.645,38.768 L364.927,38.768 C369.345,31.218 379.319,26.515 388.155,26.515 C412.807,26.515 414.802,44.469 414.802,55.157 L414.802,102.607 L390.576,102.607 L390.576,66.84 C390.576,56.724 391.717,46.467 378.467,46.467 C369.345,46.467 365.353,54.161 365.353,62.282 L365.353,102.607 L341.134,102.607 L341.134,28.653" id="Fill-7" fill="#1A2B45"></path>
            <path d="M422.88,28.653 L446.394,28.653 L446.394,38.768 L446.678,38.768 C451.094,31.218 461.07,26.515 469.904,26.515 C494.556,26.515 496.551,44.469 496.551,55.157 L496.551,102.607 L472.327,102.607 L472.327,66.84 C472.327,56.724 473.469,46.467 460.217,46.467 C451.094,46.467 447.106,54.161 447.106,62.282 L447.106,102.607 L422.88,102.607 L422.88,28.653" id="Fill-8" fill="#1A2B45"></path>
            <polygon id="Fill-9" fill="#451826" points="30.895 143.94 55.403 143.94 55.403 119.432 30.895 119.432"></polygon>
            <polygon id="Fill-10" fill="#F3AF53" points="55.403 143.94 79.911 143.94 79.911 119.432 55.403 119.432"></polygon>
            <polygon id="Fill-11" fill="#1A2B45" points="79.911 143.94 104.418 143.94 104.418 119.432 79.911 119.432"></polygon>
            <polygon id="Fill-12" fill="#918E79" points="104.418 143.94 128.926 143.94 128.926 119.432 104.418 119.432"></polygon>
            <polygon id="Fill-13" fill="#451826" points="128.925 143.94 153.434 143.94 153.434 119.432 128.925 119.432"></polygon>
            <polygon id="Fill-14" fill="#F3AF53" points="153.434 143.94 177.941 143.94 177.941 119.432 153.434 119.432"></polygon>
            <polygon id="Fill-15" fill="#1A2B45" points="177.941 143.94 202.449 143.94 202.449 119.432 177.941 119.432"></polygon>
            <polygon id="Fill-16" fill="#918E79" points="202.449 143.94 226.957 143.94 226.957 119.432 202.449 119.432"></polygon>
            <polygon id="Fill-17" fill="#451826" points="226.956 143.94 251.464 143.94 251.464 119.432 226.956 119.432"></polygon>
            <polygon id="Fill-18" fill="#F3AF53" points="251.464 143.94 275.972 143.94 275.972 119.432 251.464 119.432"></polygon>
            <path d="M311.317,135.34 C312.017,135.555 313.039,135.716 313.736,135.716 C315.886,135.716 317.418,134.078 317.418,131.793 C317.418,129.242 316.075,127.575 314.06,127.575 C313.064,127.575 312.338,127.897 311.317,128.812 L311.317,135.34 Z M311.317,126.527 C312.367,125.774 313.441,125.424 314.65,125.424 C317.661,125.424 319.863,127.978 319.863,131.444 C319.863,135.53 317.444,137.974 313.414,137.974 C311.828,137.974 310.109,137.626 308.928,137.06 L308.928,119.405 L311.317,119.405 L311.317,126.527 L311.317,126.527 Z" id="Fill-19" fill="#000105"></path>
            <polyline id="Fill-20" fill="#000105" points="324.219 143.914 321.559 143.914 325.67 135.152 320.994 125.667 323.707 125.667 326.959 132.465 330.076 125.667 332.763 125.667 324.219 143.914"></polyline>
        </g>
    </g>
</svg>